<svg id="Layer_1" enable-background="new 0 0 512 512" height="512" viewBox="0 0 512 512" width="512" xmlns="http://www.w3.org/2000/svg"><g><g><path d="m165.36 474.031c.13 1.41-.34 2.8-1.28 3.84-.95 1.04-2.29 1.63-3.7 1.63h-49.79c-1.4 0-2.75-.59-3.69-1.63-.95-1.04-1.42-2.43-1.29-3.84l9.99-106.397c.24-2.57 2.4-4.53 4.98-4.53h29.81c2.58 0 4.74 1.96 4.98 4.53z" fill="#c4893b"/><path d="m165.36 474.031c.13 1.41-.34 2.8-1.28 3.84-.95 1.04-2.29 1.63-3.7 1.63h-22c1.41 0 2.75-.59 3.7-1.63.94-1.04 1.41-2.43 1.28-3.84l-9.99-106.397c-.24-2.57-2.4-4.53-4.98-4.53h22c2.58 0 4.74 1.96 4.98 4.53z" fill="#b2581b"/><path d="m242.67 173.45-.79 194.684c-.02 4.13-3.37 7.47-7.5 7.47h-154.93c-14.35 0-28.42-4.94-39.63-13.92-25.28-20.259-30.97-56.078-14.35-82.987-5.09-4.28-9.54-9.24-13.29-14.82-20.56-30.609-14.31-71.538 13.3-94.747-6.16-10.01-9.48-21.629-9.47-33.439.02-16.969 6.63-32.909 18.62-44.899 10.36-10.36 23.66-16.69 38.01-18.21-1.31-9.13-.62-18.45 2.08-27.389 4.91-16.25 15.85-29.619 30.8-37.639 14.96-8.01 32.13-9.72 48.36-4.8 30.38 9.21 48.85 39.299 44.47 69.838 11.94 1.3 23.39 6 32.82 13.55 6.95 5.57 12.69 12.57 16.89 20.38 4.58 8.47 7.34 17.879 7.87 27.409.83 14.99-3.86 28.899-13.26 39.519z" fill="#a8ea49"/><path d="m242.67 173.45-.79 194.684c-.02 4.13-3.37 7.47-7.5 7.47h-76.56v-105.247l-10.22-10.23c-14.58-14.609-14.58-38.379 0-52.988l100.46-100.617c4.58 8.47 7.34 17.879 7.87 27.409.83 14.99-3.86 28.899-13.26 39.519z" fill="#3fd842"/><path d="m490.82 252.808v221.693c0 4.14-3.36 7.5-7.5 7.5h-288c-4.14 0-7.5-3.36-7.5-7.5v-221.693c0-1.98.79-3.89 2.19-5.3l144-144.216c1.41-1.41 3.32-2.2 5.31-2.2s3.9.79 5.31 2.2l116.19 116.366 27.81 27.849c1.4 1.411 2.19 3.321 2.19 5.301z" fill="#52deff"/><path d="m488.63 247.508c1.4 1.41 2.19 3.32 2.19 5.3v221.693c0 4.14-3.36 7.5-7.5 7.5h-288c-4.14 0-7.5-3.36-7.5-7.5v-32.499h265.5c4.14 0 7.5-3.36 7.5-7.5v-214.843z" fill="#55baff"/><path d="m472.27 86.823v104.987c0 3.04-1.82 5.77-4.63 6.93-.93.39-1.9.57-2.86.57-1.96 0-3.88-.76-5.31-2.2l-16.2-16.22-35.01-35.059c-1.4-1.4-2.19-3.31-2.19-5.3v-53.708c0-4.14 3.36-7.5 7.5-7.5h51.2c4.15 0 7.5 3.36 7.5 7.5z" fill="#555760"/><path d="m472.27 86.823v104.987c0 3.04-1.82 5.77-4.63 6.93-.93.39-1.9.57-2.86.57-1.96 0-3.88-.76-5.31-2.2l-16.2-16.22v-94.067c0-4.14-3.35-7.5-7.5-7.5h29c4.15 0 7.5 3.36 7.5 7.5z" fill="#36383f"/><path d="m509.808 226.301-165.179-165.429c-1.407-1.409-3.316-2.201-5.308-2.201s-3.9.792-5.308 2.201l-165.178 165.429c-2.923 2.928-2.923 7.67 0 10.598l21.179 21.211c1.407 1.409 3.316 2.201 5.308 2.201s3.9-.792 5.308-2.201l138.692-138.903 138.692 138.903c1.407 1.409 3.316 2.201 5.308 2.201s3.9-.792 5.308-2.201l21.179-21.211c2.922-2.928 2.922-7.67-.001-10.598z" fill="#ff455c"/><path d="m511.19 474.501v29.999c0 4.14-3.36 7.5-7.5 7.5h-496.19c-4.14 0-7.5-3.36-7.5-7.5v-29.999c0-4.14 3.36-7.5 7.5-7.5h7.48v-17.219c0-4.14 3.35-7.5 7.5-7.5 4.14 0 7.5 3.36 7.5 7.5v17.219h14.89v-17.219c0-4.14 3.36-7.5 7.5-7.5s7.5 3.36 7.5 7.5v17.219h14.89v-17.219c0-4.14 3.36-7.5 7.5-7.5s7.5 3.36 7.5 7.5v17.219h413.93c4.14 0 7.5 3.36 7.5 7.5z" fill="#a8ea49"/><path d="m511.19 474.501v29.999c0 4.14-3.36 7.5-7.5 7.5h-496.19c-4.14 0-7.5-3.36-7.5-7.5v-12.5h473.69c4.14 0 7.5-3.36 7.5-7.5v-10c0-4.14-3.36-7.5-7.5-7.5h30c4.14.001 7.5 3.361 7.5 7.501z" fill="#3fd842"/></g><path d="m339.321 211.381c-26.191 0-47.5 21.309-47.5 47.5v38.318c0 4.142 3.357 7.5 7.5 7.5s7.5-3.358 7.5-7.5v-38.318c0-17.92 14.579-32.5 32.5-32.5s32.5 14.58 32.5 32.5v38.318c0 4.142 3.357 7.5 7.5 7.5s7.5-3.358 7.5-7.5v-38.318c0-26.191-21.308-47.5-47.5-47.5z" fill="#555760"/><path d="m406.51 297.2v89.66c0 15.01-12.21 27.21-27.21 27.21h-79.96c-15 0-27.21-12.2-27.21-27.21v-89.66c0-4.14 3.36-7.5 7.5-7.5h119.38c4.14 0 7.5 3.36 7.5 7.5z" fill="#fff"/><path d="m406.51 297.2v89.66c0 15.01-12.21 27.21-27.21 27.21h-25c15.03 0 27.21-12.18 27.21-27.21v-89.66c0-4.14-3.36-7.5-7.5-7.5h25c4.14 0 7.5 3.36 7.5 7.5z" fill="#eef6ff"/><path d="m339.321 324.454c-11.94 0-21.654 9.714-21.654 21.654 0 9.305 5.899 17.258 14.154 20.315v7.873c0 4.142 3.357 7.5 7.5 7.5s7.5-3.358 7.5-7.5v-7.873c8.255-3.057 14.154-11.01 14.154-20.315.001-11.94-9.713-21.654-21.654-21.654z" fill="#cadee5"/></g></svg>