<svg id="Layer_2" enable-background="new 0 0 64 64" height="512" viewBox="0 0 64 64" width="512" xmlns="http://www.w3.org/2000/svg"><g><g><g><path d="m30 50v12h-20v-11c0-1.3-.42-2.56-1.2-3.6l-2.4-3.2c-1.56-2.08-2.4-4.6-2.4-7.2v-6.1c0-3.24-.62-6.44-1.82-9.45-.12-.3-.18-.61-.18-.93 0 0 0 0 0-.01 0-1.38 1.12-2.51 2.53-2.51h.09c1.28 0 2.46.45 3.38 1.2 1.22.98 2 2.49 2 4.18v4.62 1l.42.21c2.19 1.1 3.58 3.34 3.58 5.79v15c0 1.1.9 2 2 2 .55 0 1.05-.22 1.41-.59.37-.36.59-.86.59-1.41v-2c0-1.1.9-2 2-2 .55 0 1.05.22 1.41.59.37.36.59.86.59 1.41v8c0 1.1.9 2 2 2 .55 0 1.05-.22 1.41-.59.37-.36.59-.86.59-1.41v-6c0-1.1.9-2 2-2 .55 0 1.05.22 1.41.59.37.36.59.86.59 1.41z" fill="#f0d0b4"/></g><g><path d="m24 42c0 3.31 2.69 6 6 6 .21 0 .42-.01.62-.03-.19.68-.4 1.36-.62 2.03 0-.55-.22-1.05-.59-1.41-.36-.37-.86-.59-1.41-.59-1.1 0-2 .9-2 2v6c0 .55-.22 1.05-.59 1.41-.36.37-.86.59-1.41.59-1.1 0-2-.9-2-2v-8c0-.55-.22-1.05-.59-1.41-.36-.37-.86-.59-1.41-.59-1.1 0-2 .9-2 2v2c0 .55-.22 1.05-.59 1.41-.36.37-.86.59-1.41.59-1.1 0-2-.9-2-2v-15c0-2.45-1.39-4.69-3.58-5.79l-.42-.21v-1c1.28-.64 2.62-1.13 4-1.47 1.46-.35 2.96-.53 4.47-.53h1.53 2.07.01c-.06.33-.08.66-.08 1 0 1.38.41 2.67 1.1 3.75-1.85 1.02-3.1 2.99-3.1 5.25 0 2.62 1.68 4.84 4.02 5.66-.01.11-.02.22-.02.34z" fill="#3bafda"/></g><g><path d="m26 20.67v.01c-2.08.98-3.59 2.96-3.92 5.32h-.01-2.07v-17c0-.83.34-1.58.88-2.12s1.29-.88 2.12-.88c1.66 0 3 1.34 3 3v4z" fill="#f0d0b4"/></g><g><path d="m14 9v17.53c-1.38.34-2.72.83-4 1.47v-4.62c0-1.69-.78-3.2-2-4.18v-.01-10.19c0-1.66 1.34-3 3-3 .83 0 1.58.34 2.12.88s.88 1.29.88 2.12z" fill="#f0d0b4"/></g><g><path d="m20 9v17h-1.53c-1.51 0-3.01.18-4.47.53v-17.53-4c0-1.66 1.34-3 3-3 .83 0 1.58.34 2.12.88s.88 1.29.88 2.12z" fill="#f0d0b4"/></g><g><path d="m32 15.53c-1.23 1.1-2 2.7-2 4.47v.08c-.32-.05-.66-.08-1-.08-1.08 0-2.09.24-3 .68v-.01-7.67c0-1.66 1.34-3 3-3 .83 0 1.58.34 2.12.88s.88 1.29.88 2.12z" fill="#f0d0b4"/></g><g><path d="m44.66 27.85 2.64-4.63c.46-.8.7-1.7.7-2.62 0-1.04-.31-2.06-.89-2.93l-1.58-2.38-2.88-4.32c-.42-.63-.65-1.38-.65-2.14 0-.25.03-.48.1-.71.12-.5.38-.94.73-1.29.51-.51 1.22-.83 2-.83.75 0 1.47.3 2 .83l5.66 5.66c1.29 1.29 2.25 2.83 2.84 4.52.44 1.26.67 2.6.67 3.96v2.03l-.01.1c-2.28.47-3.99 2.48-3.99 4.9 0 .63.13 1.23.34 1.78-1.4.89-2.34 2.44-2.34 4.22 0 1.27.49 2.42 1.28 3.31-.8 1.02-1.28 2.3-1.28 3.69 0 3.31 2.69 6 6 6 .09 0 .17 0 .25-.01.17 5.01.42 10.01.75 15.01h-15v-9.33c0-.67-.08-1.34-.25-1.99-.26-1.01-.71-1.97-1.35-2.81l-.66-.88-2.16-2.88c-.01-.02-.03-.04-.04-.06-1.01-1.36-1.54-2.99-1.54-4.68v-.05c0-.88.14-1.73.41-2.56.09-.27.19-.57.3-.89.13-.41.28-.85.42-1.27.2-.58.36-1.17.49-1.77v-.01c.25-1.17.38-2.36.38-3.56s-.13-2.39-.38-3.56c-.2-.93-.48-1.84-.83-2.72l-.61-1.53c-.12-.29-.18-.6-.18-.91 0-.01 0-.01 0-.02 0 0 0 0 0-.01 0-1.38 1.12-2.51 2.53-2.51.61 0 1.2.09 1.75.27.85.26 1.61.72 2.24 1.31.14.13.28.28.41.42.82.94 1.34 2.13 1.43 3.46l.29 4.39z" fill="#f0d0b4"/></g><g><path d="m47.11 17.67c.58.87.89 1.89.89 2.93 0 .92-.24 1.82-.7 2.62l-2.64 4.63h-.01l-.29-4.39c-.09-1.33-.61-2.52-1.43-3.46h.07c1.66 0 3-1.34 3-3 0-.62-.19-1.2-.51-1.68l.04-.03z" fill="#69d6f4"/></g><g><path d="m42.65 10.97c-.42-.63-.65-1.38-.65-2.14 0-.25.03-.48.1-.71h-.01c-.35-.08-.72-.12-1.09-.12-2.76 0-5 2.24-5 5 0 .34.04.68.1 1.01-.03-.01-.07-.01-.1-.01-1.54 0-2.94.58-4 1.53-1.23 1.1-2 2.7-2 4.47v.08c-.32-.05-.66-.08-1-.08-1.08 0-2.09.24-3 .68-2.08.98-3.59 2.96-3.92 5.32-.06.33-.08.66-.08 1 0 1.38.41 2.67 1.1 3.75-1.85 1.02-3.1 2.99-3.1 5.25 0 2.62 1.68 4.84 4.02 5.66-.01.11-.02.22-.02.34 0 3.31 2.69 6 6 6 .21 0 .42-.01.62-.03.56-.06 1.09-.19 1.6-.4.69 2.55 3.01 4.43 5.78 4.43 1.42 0 2.72-.49 3.75-1.32-.26-1.01-.71-1.97-1.35-2.81l-.66-.88c-.34.6-.99 1.01-1.74 1.01-1.1 0-2-.9-2-2 0-.95.66-1.74 1.54-1.95-1.01-1.36-1.54-2.99-1.54-4.68v-.05c0-.88.14-1.73.41-2.56.09-.27.19-.57.3-.89-.22.08-.46.13-.71.13-1.1 0-2-.9-2-2s.9-2 2-2c.67 0 1.25.33 1.62.82.25-1.17.38-2.36.38-3.56s-.13-2.39-.38-3.56c-.64 1.36-2.02 2.3-3.62 2.3-2.21 0-4-1.79-4-4 0-1.1.45-2.1 1.17-2.83.73-.72 1.73-1.17 2.83-1.17.73 0 1.41.19 2 .54 0-.01 0-.01 0-.02 0 0 0 0 0-.01 0-1.38 1.12-2.51 2.53-2.51.61 0 1.2.09 1.75.27-.18-.39-.28-.82-.28-1.27 0-1.66 1.34-3 3-3 1.04 0 1.95.52 2.49 1.32l.04-.03z" fill="#69d6f4"/></g><g><path d="m37.58 44.11 2.16 2.88c-.34.6-.99 1.01-1.74 1.01-1.1 0-2-.9-2-2 0-.95.66-1.74 1.54-1.95.01.02.03.04.04.06z" fill="#3bafda"/></g><g><circle cx="30" cy="42" fill="#3bafda" r="2"/></g><g><path d="m37.13 34.6c-.14.42-.29.86-.42 1.27-.22.08-.46.13-.71.13-1.1 0-2-.9-2-2s.9-2 2-2c.67 0 1.25.33 1.62.82v.01c-.13.6-.29 1.19-.49 1.77z" fill="#3bafda"/></g><g><circle cx="26" cy="32" fill="#3bafda" r="2"/></g><g><path d="m36.79 22.98c.35.88.63 1.79.83 2.72-.64 1.36-2.02 2.3-3.62 2.3-2.21 0-4-1.79-4-4 0-1.1.45-2.1 1.17-2.83.73-.72 1.73-1.17 2.83-1.17.73 0 1.41.19 2 .54 0 .31.06.62.18.91z" fill="#3bafda"/></g><g><path d="m46 17c0 1.66-1.34 3-3 3-.02 0-.04 0-.07 0-.13-.14-.27-.29-.41-.42-.63-.59-1.39-1.05-2.24-1.31-.18-.39-.28-.82-.28-1.27 0-1.66 1.34-3 3-3 1.04 0 1.95.52 2.49 1.32.32.48.51 1.06.51 1.68z" fill="#3bafda"/></g><g><path d="m61.36 25.55c.41.73.64 1.56.64 2.45 0 1.78-.94 3.33-2.34 4.22.21.55.34 1.15.34 1.78 0 .77-.19 1.49-.5 2.14 1.51 1.09 2.5 2.86 2.5 4.86 0 3.23-2.55 5.86-5.75 5.99-.08.01-.16.01-.25.01-3.31 0-6-2.69-6-6 0-1.39.48-2.67 1.28-3.69-.79-.89-1.28-2.04-1.28-3.31 0-1.78.94-3.33 2.34-4.22-.21-.55-.34-1.15-.34-1.78 0-2.42 1.71-4.43 3.99-4.9l.01-.1v-2.03c0-1.36-.23-2.7-.67-3.96 2.61.17 4.67 2.34 4.67 4.99 0 .63-.11 1.22-.32 1.78.7.44 1.28 1.05 1.68 1.77z" fill="#69d6f4"/></g><g><circle cx="56" cy="41" fill="#3bafda" r="2"/></g><g><circle cx="58" cy="29" fill="#3bafda" r="2"/></g></g><path d="m13 37h2v2h-2z"/><path d="m30 39c-1.654 0-3 1.346-3 3s1.346 3 3 3 3-1.346 3-3-1.346-3-3-3zm0 4c-.552 0-1-.449-1-1s.448-1 1-1 1 .449 1 1-.448 1-1 1z"/><path d="m53 41c0 1.654 1.346 3 3 3s3-1.346 3-3-1.346-3-3-3-3 1.346-3 3zm3-1c.552 0 1 .449 1 1s-.448 1-1 1-1-.449-1-1 .448-1 1-1z"/><path d="m63 28c0-1.805-.796-3.479-2.161-4.613.107-.452.161-.917.161-1.387 0-2.928-2.122-5.404-4.942-5.907-.646-1.596-1.611-3.061-2.865-4.315l-5.657-5.656c-.724-.724-1.684-1.122-2.708-1.122-1.455 0-2.709.826-3.356 2.026-.157-.013-.314-.026-.472-.026-3.309 0-6 2.691-6 6v.071c-.708.102-1.377.32-2 .618v-.689c0-2.206-1.794-4-4-4-.732 0-1.409.212-2 .556v-.556c0-2.206-1.794-4-4-4-.732 0-1.409.212-2 .556v-.556c0-2.206-1.794-4-4-4s-4 1.794-4 4v.556c-.591-.344-1.268-.556-2-.556-2.206 0-4 1.794-4 4v8.48c-.759-.308-1.592-.48-2.471-.48-1.946 0-3.529 1.577-3.529 3.516 0 .447.084.886.251 1.306 1.16 2.901 1.749 5.955 1.749 9.079v6.099c0 2.795.924 5.565 2.601 7.8l2.399 3.2c.645.859 1 1.925 1 3v12h49.069l-.071-1.066c-.311-4.66-.545-9.382-.711-14.057 3.246-.608 5.713-3.457 5.713-6.877 0-1.973-.846-3.855-2.296-5.175.196-.597.296-1.209.296-1.825 0-.463-.058-.929-.173-1.393 1.373-1.134 2.173-2.807 2.173-4.607zm-16-7.402c0 .744-.195 1.478-.563 2.123l-1.002 1.754-.072-1.082c-.065-.981-.344-1.9-.779-2.723.874-.379 1.576-1.067 1.995-1.919.276.574.421 1.202.421 1.847zm-5.934-3.108c-.04-.159-.066-.322-.066-.49 0-1.103.897-2 2-2s2 .897 2 2c0 .985-.717 1.8-1.688 1.964-.642-.628-1.402-1.134-2.246-1.474zm-5.082-2.49 1.347.022-.25-1.218c-.054-.263-.081-.533-.081-.804 0-2.206 1.794-4 4-4 .004 0 .008.001.013.001.032.902.302 1.773.805 2.528l.993 1.49c-2.117.101-3.811 1.84-3.811 3.981 0 .008.002.015.003.023-.157-.011-.314-.023-.474-.023-1.466 0-2.724.896-3.257 2.166-.413-.109-.841-.166-1.272-.166-1.13 0-2.162.391-3 1.026v-.026c0-2.757 2.243-5 4.984-5zm-4.589 33.849c.067-.014.134-.02.201-.035 1.102 2.508 3.606 4.186 6.404 4.186 1.033 0 2.044-.253 2.971-.689.006.119.029.236.029.356v8.333h-10v-10.839c.143-.434.267-.873.395-1.312zm5.861-3.508 1.167 1.556c-.132.062-.274.103-.423.103-.552 0-1-.449-1-1 0-.253.098-.481.256-.659zm.744 3.659c.588 0 1.144-.186 1.623-.496.401.542.712 1.144.942 1.776-.773.466-1.644.72-2.565.72-2.248 0-4.23-1.517-4.82-3.69l-.294-1.082-1.041.416c-.594.236-1.214.356-1.845.356-2.757 0-5-2.243-5-5 0-.062.005-.122.009-.182l.053-.854-.713-.25c-2.003-.702-3.349-2.597-3.349-4.714 0-1.582.753-3.059 2-3.997.002 1.653 1.347 2.997 3 2.997 1.654 0 3-1.346 3-3s-1.346-3-3-3c-.868 0-1.645.377-2.193.968-.521-.907-.807-1.923-.807-2.968 0-3.309 2.691-6 6-6 .258 0 .531.022.861.07l.1.008c-.598.823-.961 1.828-.961 2.922 0 2.757 2.243 5 5 5 1.077 0 2.099-.362 2.942-.976.031.409.058.819.058 1.232 0 .634-.05 1.265-.125 1.891-.283-.086-.574-.147-.875-.147-1.654 0-3 1.346-3 3 0 1.422.997 2.611 2.328 2.918-.214.78-.328 1.591-.328 2.448 0 1.504.395 2.993 1.118 4.306-.688.554-1.118 1.393-1.118 2.328 0 1.654 1.346 3 3 3zm-13-17c0-.551.448-1 1-1s1 .449 1 1-.448 1-1 1-1-.449-1-1zm10.077-10.774c.042.202.097.401.174.596l.611 1.526c.29.726.508 1.471.688 2.224-.543.875-1.507 1.428-2.55 1.428-1.654 0-3-1.346-3-3s1.346-3 3-3c.374 0 .733.092 1.077.226zm1.108 13.059-.233.7c-.499-.04-.952-.454-.952-.985 0-.551.448-1 1-1 .188 0 .357.063.511.156-.096.379-.202.756-.326 1.129zm-7.185-23.285c1.103 0 2 .897 2 2v2.128c-.999 1.031-1.693 2.368-1.917 3.872-.027 0-.056 0-.083 0-.692 0-1.359.097-2 .263v-6.263c0-1.103.897-2 2-2zm-6-4c1.103 0 2 .897 2 2v11.082c-1.828 1.061-3.195 2.823-3.737 4.918h-.263v-16c0-1.103.897-2 2-2zm-8-2c0-1.103.897-2 2-2s2 .897 2 2v20h-.528c-1.163 0-2.326.104-3.472.308zm-6 4c0-1.103.897-2 2-2s2 .897 2 2v16.774c-.679.193-1.346.425-2 .688v-3.081c0-1.816-.766-3.453-2-4.616zm.6 37.8-2.4-3.2c-1.419-1.891-2.2-4.235-2.2-6.6v-6.099c0-3.379-.637-6.684-1.892-9.821-.072-.182-.108-.372-.108-.565 0-.835.687-1.515 1.619-1.515 2.416 0 4.381 1.965 4.381 4.381v6.237l.975.487c1.866.934 3.025 2.809 3.025 4.895h2c0-2.705-1.437-5.141-3.764-6.471 2.272-1 4.755-1.529 7.236-1.529h2.528c0 1.188.266 2.355.773 3.422-1.731 1.313-2.773 3.372-2.773 5.578 0 2.719 1.583 5.175 4.008 6.322.103 2.253 1.278 4.226 3.023 5.433-.627.55-1.031 1.348-1.031 2.245v6c0 .551-.448 1-1 1s-1-.449-1-1v-8c0-1.654-1.346-3-3-3s-3 1.346-3 3v2c0 .551-.448 1-1 1s-1-.449-1-1v-9h-2v9c0 1.654 1.346 3 3 3s3-1.346 3-3v-2c0-.551.448-1 1-1s1 .449 1 1v8c0 1.654 1.346 3 3 3s3-1.346 3-3v-6c0-.551.448-1 1-1s1 .449 1 1v11h-18v-10c0-1.505-.497-2.997-1.4-4.2zm33.4 14.2v-8.333c0-1.935-.64-3.853-1.801-5.4l-2.817-3.757c-.892-1.187-1.382-2.659-1.382-4.19 0-.769.121-1.522.36-2.24l.722-2.162c.609-1.83.918-3.734.918-5.662 0-2.289-.431-4.526-1.28-6.651l-.611-1.525c-.073-.182-.109-.372-.109-.565 0-.835.687-1.515 1.529-1.515 2.543 0 4.668 1.988 4.837 4.526l.487 7.31c.115 1.729 1.149 3.284 2.699 4.059l.895-1.789c-.918-.458-1.53-1.379-1.598-2.403l-.174-2.618 2.498-4.371c.541-.947.827-2.025.827-3.116 0-1.244-.365-2.448-1.055-3.482l-4.464-6.695c-.314-.474-.481-1.025-.481-1.592 0-1.009.82-1.829 1.828-1.829.481 0 .952.195 1.293.536l5.657 5.657c2.077 2.078 3.222 4.84 3.222 7.778l.002 1.371c-2.36.834-4.002 3.097-4.002 5.658 0 .463.058.929.173 1.393-1.373 1.134-2.173 2.807-2.173 4.607 0 1.188.364 2.349 1.037 3.34-.681 1.1-1.037 2.351-1.037 3.66 0 3.62 2.762 6.607 6.289 6.964.153 4.334.365 8.708.643 13.036zm15-31c-.552 0-1-.449-1-1s.448-1 1-1 1 .449 1 1-.448 1-1 1zm2.956-1.433c-.212-1.448-1.45-2.567-2.956-2.567-1.654 0-3 1.346-3 3s1.346 3 3 3c.166 0 .327-.023.486-.049l.239.626c.182.478.275.956.275 1.423 0 .575-.135 1.149-.399 1.708l-.357.752.676.488c1.302.94 2.08 2.455 2.08 4.052 0 2.757-2.243 5-5 5s-5-2.243-5-5c0-1.123.368-2.186 1.064-3.075l.515-.657-.555-.624c-.66-.744-1.024-1.683-1.024-2.644 0-1.372.701-2.633 1.875-3.375l.692-.438-.292-.765c-.182-.477-.275-.955-.275-1.422 0-1.892 1.343-3.54 3.192-3.919l.739-.151.058-.752.011-2.207c0-.873-.085-1.732-.252-2.569 1.336.652 2.252 2.027 2.252 3.598 0 .489-.087.967-.26 1.421l-.288.762.688.437c1.165.739 1.86 2.003 1.86 3.38 0 .192-.017.381-.044.567z"/></g></svg>