<?xml version="1.0" ?><svg style="enable-background:new 0 0 64 64;" version="1.1" viewBox="0 0 64 64" xml:space="preserve" xmlns="http://www.w3.org/2000/svg" xmlns:xlink="http://www.w3.org/1999/xlink"><style type="text/css">
	.st0{fill:#75C6A8;}
	.st1{fill:#57B5B5;}
	.st2{fill:#263047;}
	.st3{fill:#DB7158;}
	.st4{fill:none;stroke:#263047;stroke-width:0.5;stroke-linecap:round;stroke-miterlimit:10;}
	.st5{fill:none;stroke:#EA8B78;stroke-width:2;stroke-linecap:round;stroke-miterlimit:10;}
	.st6{fill:#E89715;}
	.st7{fill:none;stroke:#263047;stroke-linecap:round;stroke-miterlimit:10;}
	.st8{fill:none;stroke:#263047;stroke-width:0.5;stroke-linecap:round;stroke-linejoin:round;stroke-miterlimit:10;}
	.st9{fill:#456BA8;}
	.st10{fill:#9EC6B8;}
	.st11{fill:#C14F46;}
	.st12{fill:#BFD8D0;}
	.st13{fill:#E57417;}
	.st14{fill:none;stroke:#9EC6B8;stroke-width:0.75;stroke-linecap:round;stroke-linejoin:round;stroke-miterlimit:10;}
	.st15{fill:#FFFFFF;}
	.st16{fill:#D8EAE3;}
	.st17{fill:none;stroke:#DB7158;stroke-linecap:round;stroke-miterlimit:10;}
	.st18{fill:none;stroke:#BFD8D0;stroke-width:0.5;stroke-linecap:round;stroke-miterlimit:10;}
	.st19{fill:none;stroke:#263047;stroke-width:0.5;stroke-linecap:round;stroke-miterlimit:10;stroke-dasharray:1.0458,1.0458;}
	.st20{fill:#75C6A8;stroke:#75C6A8;stroke-width:0.25;stroke-linejoin:round;stroke-miterlimit:10;}
	.st21{fill:#EF8873;}
	.st22{fill:none;stroke:#263047;stroke-width:0.5;stroke-miterlimit:10;}
	.st23{fill:none;stroke:#263047;stroke-width:0.5;stroke-linecap:round;stroke-miterlimit:10;stroke-dasharray:1.8125,1.8125;}
	.st24{fill:none;stroke:#263047;stroke-linecap:round;stroke-miterlimit:10;stroke-dasharray:1.912,1.912;}
	.st25{fill:none;}
	.st26{fill:none;stroke:#EA8B78;stroke-linecap:round;stroke-miterlimit:10;}
	.st27{fill:none;stroke:#263047;stroke-width:3;stroke-miterlimit:10;}
	.st28{fill:none;stroke:#BFD8D0;stroke-miterlimit:10;}
	.st29{fill:none;stroke:#BFD8D0;stroke-width:0.5;stroke-miterlimit:10;}
	.st30{fill:none;stroke:#9EC6B8;stroke-width:0.5;stroke-miterlimit:10;}
	.st31{fill:none;stroke:#75C6A8;stroke-width:0.5;stroke-miterlimit:10;}
	.st32{fill:none;stroke:#F9F9F9;stroke-width:0.5;stroke-linecap:round;stroke-linejoin:round;stroke-miterlimit:10;}
	.st33{fill:none;stroke:#9EC6B8;stroke-width:0.5;stroke-linecap:round;stroke-linejoin:round;stroke-miterlimit:10;}
	.st34{fill:#EA8B78;}
	.st35{fill:none;stroke:#EA8B78;stroke-width:0.75;stroke-linecap:round;stroke-miterlimit:10;}
</style><g id="Layer_1"/><g id="artworks"><circle class="st10" cx="39.7" cy="24.3" r="16.7"/><circle class="st12" cx="39.7" cy="24.3" r="14.8"/><g><g><circle class="st2" cx="9.1" cy="13.4" r="3.7"/><g><path class="st2" d="M10.2,7.5c0-0.4-0.5-0.7-1.1-0.7C8.5,6.8,8,7.1,8,7.5c0,0.1,0,0.2,0.1,0.3c0.3,0.5,0.4,1.1,0.4,1.7v1.4h1.2      V9.4c0-0.6,0.1-1.2,0.4-1.7C10.2,7.7,10.2,7.6,10.2,7.5z"/><path class="st2" d="M8,19.2c0,0.4,0.5,0.7,1.1,0.7c0.6,0,1.1-0.3,1.1-0.7c0-0.1,0-0.2-0.1-0.3c-0.3-0.5-0.4-1.1-0.4-1.7v-1.4      H8.5v1.4c0,0.6-0.1,1.2-0.4,1.7C8,19.1,8,19.2,8,19.2z"/></g><g><path class="st2" d="M7.1,8.2C6.9,8,6.5,7.9,6.1,8.2C5.7,8.4,5.5,8.8,5.7,9c0,0.1,0.1,0.1,0.1,0.1C6.2,9.3,6.5,9.6,6.7,10      l0.5,0.9l0.7-0.4L7.4,9.6C7.2,9.2,7.1,8.8,7.1,8.4C7.1,8.3,7.1,8.2,7.1,8.2z"/><path class="st2" d="M11.2,18.5c0.1,0.2,0.6,0.3,0.9,0c0.4-0.2,0.6-0.6,0.4-0.8c0-0.1-0.1-0.1-0.1-0.1c-0.4-0.2-0.7-0.5-0.9-0.9      l-0.5-0.9l-0.7,0.4l0.5,0.9c0.2,0.4,0.4,0.8,0.3,1.2C11.1,18.4,11.1,18.5,11.2,18.5z"/></g><g><path class="st2" d="M3.6,12.6c-0.3,0-0.5,0.4-0.5,0.8c0,0.4,0.2,0.8,0.5,0.8c0.1,0,0.1,0,0.2-0.1c0.3-0.2,0.8-0.3,1.2-0.3h1      v-0.9H5c-0.4,0-0.8-0.1-1.2-0.3C3.7,12.6,3.7,12.6,3.6,12.6z"/><path class="st2" d="M14.6,14.2c0.3,0,0.5-0.4,0.5-0.8c0-0.4-0.2-0.8-0.5-0.8c-0.1,0-0.1,0-0.2,0.1c-0.3,0.2-0.8,0.3-1.2,0.3h-1      v0.9h1c0.4,0,0.8,0.1,1.2,0.3C14.5,14.1,14.6,14.2,14.6,14.2z"/></g><g><path class="st2" d="M5.7,17.7c-0.1,0.2,0.1,0.6,0.4,0.8c0.4,0.2,0.8,0.2,0.9,0c0-0.1,0-0.1,0-0.2c0-0.4,0.1-0.8,0.3-1.2      l0.5-0.9l-0.7-0.4l-0.5,0.9c-0.2,0.4-0.5,0.7-0.9,0.9C5.7,17.6,5.7,17.7,5.7,17.7z"/><path class="st2" d="M12.6,9c0.1-0.2-0.1-0.6-0.4-0.8c-0.4-0.2-0.8-0.2-0.9,0c0,0.1,0,0.1,0,0.2c0,0.4-0.1,0.8-0.3,1.2l-0.5,0.9      l0.7,0.4l0.5-0.9c0.2-0.4,0.5-0.7,0.9-0.9C12.5,9.1,12.5,9,12.6,9z"/></g><g><path class="st2" d="M4.6,9.5c-0.3-0.2-0.9,0.1-1.2,0.6c-0.3,0.5-0.3,1.1,0,1.3c0.1,0,0.2,0.1,0.3,0.1c0.6,0,1.1,0.2,1.7,0.5      l1.2,0.7l0.6-1L6,10.9c-0.5-0.3-1-0.7-1.2-1.2C4.7,9.6,4.7,9.5,4.6,9.5z"/><path class="st2" d="M13.6,17.3c0.3,0.2,0.9-0.1,1.2-0.6c0.3-0.5,0.3-1.1,0-1.3c-0.1,0-0.2-0.1-0.3-0.1c-0.6,0-1.1-0.2-1.7-0.5      l-1.2-0.7l-0.6,1l1.2,0.7c0.5,0.3,1,0.7,1.2,1.2C13.5,17.2,13.6,17.2,13.6,17.3z"/></g><g><path class="st2" d="M3.5,15.3c-0.3,0.2-0.4,0.8,0,1.3c0.3,0.5,0.8,0.8,1.2,0.6c0.1,0,0.1-0.1,0.2-0.2C5,16.5,5.5,16.2,6,15.9      l1.2-0.7l-0.6-1l-1.2,0.7c-0.5,0.3-1.1,0.5-1.7,0.5C3.6,15.3,3.5,15.3,3.5,15.3z"/><path class="st2" d="M14.8,11.4c0.3-0.2,0.4-0.8,0-1.3c-0.3-0.5-0.8-0.8-1.2-0.6c-0.1,0-0.1,0.1-0.2,0.2      c-0.3,0.5-0.7,0.9-1.2,1.2L11,11.6l0.6,1l1.2-0.7c0.5-0.3,1.1-0.5,1.7-0.5C14.6,11.5,14.7,11.4,14.8,11.4z"/></g><g><path class="st9" d="M8.5,12l-0.4-1c0.3-0.1,0.7-0.2,1-0.2v1C8.9,11.9,8.7,11.9,8.5,12z"/></g><g><path class="st9" d="M7.6,13.4h-1c0-0.7,0.3-1.4,0.8-1.8l0.7,0.8C7.8,12.6,7.6,13,7.6,13.4z"/></g></g></g><g><g><circle class="st2" cx="48.5" cy="53.9" r="4.1"/><g><path class="st2" d="M54,50.2c0.3-0.3,0.2-0.9-0.3-1.4c-0.5-0.5-1.1-0.6-1.4-0.3c-0.1,0.1-0.1,0.2-0.1,0.3      c-0.1,0.6-0.5,1.2-1,1.6L50,51.4l0.9,0.9l1.1-1.1c0.5-0.5,1-0.8,1.6-1C53.8,50.3,53.9,50.3,54,50.2z"/><path class="st2" d="M43,57.6c-0.3,0.3-0.2,0.9,0.3,1.4c0.5,0.5,1.1,0.6,1.4,0.3c0.1-0.1,0.1-0.2,0.1-0.3c0.1-0.6,0.5-1.2,1-1.6      l1.1-1.1L46,55.4l-1.1,1.1c-0.5,0.5-1,0.8-1.6,1C43.2,57.5,43.1,57.6,43,57.6z"/></g><g><path class="st2" d="M50.9,48.2c0.1-0.3-0.2-0.6-0.7-0.8c-0.5-0.1-0.9,0-1,0.3c0,0.1,0,0.1,0,0.2c0.2,0.4,0.1,0.9,0,1.4      l-0.3,1.1l0.9,0.2l0.3-1.1c0.1-0.4,0.3-0.9,0.7-1.2C50.9,48.4,50.9,48.3,50.9,48.2z"/><path class="st2" d="M46.1,59.6c-0.1,0.3,0.2,0.6,0.7,0.8c0.5,0.1,0.9,0,1-0.3c0-0.1,0-0.1,0-0.2c-0.2-0.4-0.1-0.9,0-1.4      l0.3-1.1l-0.9-0.2l-0.3,1.1c-0.1,0.4-0.3,0.9-0.7,1.2C46.1,59.4,46.1,59.5,46.1,59.6z"/></g><g><path class="st2" d="M44.8,49c-0.2-0.2-0.7-0.1-1,0.2c-0.3,0.3-0.4,0.8-0.2,1c0.1,0.1,0.1,0.1,0.2,0.1c0.5,0.1,0.8,0.4,1.2,0.7      l0.8,0.8l0.7-0.7l-0.8-0.8c-0.3-0.3-0.6-0.7-0.7-1.2C44.9,49.1,44.9,49,44.8,49z"/><path class="st2" d="M52.2,58.8c0.2,0.2,0.7,0.1,1-0.2c0.3-0.3,0.4-0.8,0.2-1c-0.1-0.1-0.1-0.1-0.2-0.1      c-0.5-0.1-0.8-0.4-1.2-0.7L51.3,56l-0.7,0.7l0.8,0.8c0.3,0.3,0.6,0.7,0.7,1.2C52.1,58.7,52.1,58.8,52.2,58.8z"/></g><g><path class="st2" d="M42.4,54.6c-0.3,0.1-0.4,0.5-0.3,1c0.1,0.5,0.5,0.8,0.8,0.7c0.1,0,0.1-0.1,0.2-0.1c0.3-0.3,0.7-0.6,1.2-0.7      l1.1-0.3L45,54.3L44,54.6c-0.4,0.1-0.9,0.2-1.4,0C42.5,54.6,42.5,54.6,42.4,54.6z"/><path class="st2" d="M54.6,53.2c0.3-0.1,0.4-0.5,0.3-1c-0.1-0.5-0.5-0.8-0.8-0.7c-0.1,0-0.1,0.1-0.2,0.1      c-0.3,0.3-0.7,0.6-1.2,0.7l-1.1,0.3l0.2,0.9l1.1-0.3c0.4-0.1,0.9-0.2,1.4,0C54.5,53.2,54.6,53.2,54.6,53.2z"/></g><g><path class="st2" d="M48,47.3c-0.1-0.4-0.7-0.6-1.4-0.4c-0.7,0.2-1.1,0.7-1,1.1c0,0.1,0.1,0.2,0.2,0.2c0.5,0.4,0.8,1,0.9,1.6      l0.4,1.5l1.3-0.3L48,49.5c-0.2-0.6-0.2-1.3,0-1.9C48,47.5,48,47.4,48,47.3z"/><path class="st2" d="M49,60.5c0.1,0.4,0.7,0.6,1.4,0.4c0.7-0.2,1.1-0.7,1-1.1c0-0.1-0.1-0.2-0.2-0.2c-0.5-0.4-0.8-1-0.9-1.6      l-0.4-1.5l-1.3,0.3l0.4,1.5c0.2,0.6,0.2,1.3,0,1.9C49,60.3,49,60.4,49,60.5z"/></g><g><path class="st2" d="M42.5,51c-0.4-0.1-0.9,0.3-1.1,1c-0.2,0.7,0,1.3,0.4,1.4c0.1,0,0.2,0,0.3,0c0.6-0.2,1.3-0.2,1.9,0l1.5,0.4      l0.3-1.3l-1.5-0.4c-0.6-0.2-1.2-0.5-1.6-0.9C42.7,51.1,42.6,51.1,42.5,51z"/><path class="st2" d="M54.5,56.8c0.4,0.1,0.9-0.3,1.1-1c0.2-0.7,0-1.3-0.4-1.4c-0.1,0-0.2,0-0.3,0c-0.6,0.2-1.3,0.2-1.9,0      L51.4,54l-0.3,1.3l1.5,0.4c0.6,0.2,1.2,0.5,1.6,0.9C54.3,56.7,54.4,56.8,54.5,56.8z"/></g><g><path class="st9" d="M49.1,52.4l0.4-1.1c0.4,0.1,0.7,0.4,0.9,0.6l-0.8,0.8C49.5,52.6,49.3,52.4,49.1,52.4z"/></g><g><path class="st9" d="M47.3,52.7l-0.8-0.8c0.5-0.5,1.3-0.8,2-0.8l0,1.2C48.1,52.2,47.6,52.4,47.3,52.7z"/></g></g></g><g><g><circle class="st3" cx="39.7" cy="24.3" r="5.9"/><g><path class="st3" d="M47.7,18.8c0.4-0.4,0.2-1.4-0.5-2.1c-0.7-0.7-1.6-0.9-2.1-0.5c-0.1,0.1-0.2,0.2-0.2,0.4      c-0.2,0.9-0.7,1.7-1.4,2.4L42,20.7l1.4,1.4l1.6-1.6c0.7-0.7,1.5-1.2,2.4-1.4C47.5,19,47.6,18.9,47.7,18.8z"/><path class="st3" d="M31.7,29.7c-0.4,0.4-0.2,1.4,0.5,2.1c0.7,0.7,1.6,0.9,2.1,0.5c0.1-0.1,0.2-0.2,0.2-0.4      c0.2-0.9,0.7-1.7,1.4-2.4l1.6-1.6l-1.4-1.4l-1.6,1.6c-0.7,0.7-1.5,1.2-2.4,1.4C32,29.5,31.8,29.6,31.7,29.7z"/></g><g><path class="st3" d="M43.3,16c0.1-0.4-0.3-0.9-1-1.1c-0.7-0.2-1.3,0-1.5,0.4c0,0.1,0,0.2,0,0.3c0.2,0.6,0.2,1.3,0,2l-0.4,1.6      l1.3,0.4l0.4-1.6c0.2-0.6,0.5-1.3,1-1.7C43.2,16.2,43.3,16.1,43.3,16z"/><path class="st3" d="M36.2,32.5c-0.1,0.4,0.3,0.9,1,1.1c0.7,0.2,1.3,0,1.5-0.4c0-0.1,0-0.2,0-0.3c-0.2-0.6-0.2-1.3,0-2l0.4-1.6      L37.7,29l-0.4,1.6c-0.2,0.6-0.5,1.3-1,1.7C36.3,32.4,36.2,32.4,36.2,32.5z"/></g><g><path class="st3" d="M34.3,17.1c-0.3-0.3-1-0.2-1.5,0.3c-0.5,0.5-0.7,1.2-0.3,1.5c0.1,0.1,0.2,0.1,0.3,0.1      c0.7,0.1,1.2,0.5,1.7,1l1.2,1.2l1-1L35.5,19c-0.5-0.5-0.9-1.1-1-1.7C34.5,17.2,34.4,17.1,34.3,17.1z"/><path class="st3" d="M45.1,31.5c0.3,0.3,1,0.2,1.5-0.3c0.5-0.5,0.7-1.2,0.3-1.5c-0.1-0.1-0.2-0.1-0.3-0.1      c-0.7-0.1-1.2-0.5-1.7-1l-1.2-1.2l-1,1l1.2,1.2c0.5,0.5,0.9,1.1,1,1.7C45,31.3,45,31.4,45.1,31.5z"/></g><g><path class="st3" d="M30.8,25.3c-0.4,0.1-0.6,0.8-0.4,1.5c0.2,0.7,0.7,1.2,1.1,1c0.1,0,0.2-0.1,0.3-0.2c0.4-0.5,1.1-0.8,1.7-1      l1.6-0.4l-0.4-1.3l-1.6,0.4c-0.6,0.2-1.3,0.2-2,0C31,25.3,30.9,25.3,30.8,25.3z"/><path class="st3" d="M48.7,23.2c0.4-0.1,0.6-0.8,0.4-1.5c-0.2-0.7-0.7-1.2-1.1-1c-0.1,0-0.2,0.1-0.3,0.2c-0.4,0.5-1.1,0.8-1.7,1      l-1.6,0.4l0.4,1.3l1.6-0.4c0.6-0.2,1.3-0.2,2,0C48.5,23.2,48.6,23.2,48.7,23.2z"/></g><g><path class="st3" d="M39,14.6c-0.2-0.6-1.1-0.9-2-0.6c-1,0.3-1.6,1-1.4,1.6c0,0.1,0.1,0.3,0.2,0.4c0.7,0.6,1.1,1.5,1.4,2.4      l0.6,2.2l1.9-0.5L39,17.8c-0.2-0.9-0.3-1.9,0-2.8C39,14.9,39,14.8,39,14.6z"/><path class="st3" d="M40.4,33.9c0.2,0.6,1.1,0.9,2,0.6c1-0.3,1.6-1,1.4-1.6c0-0.1-0.1-0.3-0.2-0.4c-0.7-0.6-1.1-1.5-1.4-2.4      L41.7,28l-1.9,0.5l0.6,2.2c0.2,0.9,0.3,1.9,0,2.8C40.4,33.6,40.4,33.8,40.4,33.9z"/></g><g><path class="st3" d="M31,20.1c-0.6-0.2-1.3,0.5-1.6,1.4c-0.3,1,0,1.9,0.6,2c0.1,0,0.3,0,0.4,0c0.9-0.3,1.9-0.2,2.8,0l2.2,0.6      l0.5-1.9l-2.2-0.6c-0.9-0.2-1.8-0.7-2.4-1.4C31.3,20.2,31.2,20.1,31,20.1z"/><path class="st3" d="M48.4,28.5C49,28.6,49.7,28,50,27c0.3-1,0-1.9-0.6-2c-0.1,0-0.3,0-0.4,0c-0.9,0.3-1.9,0.2-2.8,0L44,24.4      l-0.5,1.9l2.2,0.6c0.9,0.2,1.8,0.7,2.4,1.4C48.2,28.3,48.3,28.4,48.4,28.5z"/></g><g><path class="st21" d="M40.6,22l0.6-1.6c0.5,0.2,1,0.5,1.4,0.9l-1.2,1.2C41.2,22.3,40.9,22.1,40.6,22z"/></g><g><path class="st21" d="M38,22.5l-1.2-1.2c0.8-0.8,1.9-1.2,3-1.2l0,1.7C39.1,21.8,38.5,22.1,38,22.5z"/></g></g></g><path class="st2" d="M54.8,39.3C63.6,30.5,63,15.6,53,7.6C45.1,1.3,33.7,1.5,26,8c-8.1,6.9-9.7,18.3-4.7,26.9   c1,1.7,0.7,3.8-0.7,5.2l-5.3,5.3l3.3,3.3l5.3-5.3c1.4-1.4,3.5-1.7,5.2-0.7C37.2,47.4,47.8,46.3,54.8,39.3z M27.9,36.1   c-6.5-6.5-6.5-17.1,0-23.6S45,6,51.5,12.5s6.5,17.1,0,23.6S34.4,42.6,27.9,36.1z"/><path class="st0" d="M6.9,60.5l-3.4-3.4c-0.7-0.7-0.7-1.8,0-2.5l9.3-9.3c0.7-0.7,1.8-0.7,2.5,0l3.4,3.4c0.7,0.7,0.7,1.8,0,2.5   l-9.3,9.3C8.7,61.2,7.6,61.2,6.9,60.5z"/><path class="st4" d="M18.6,51.2l-9.3,9.3c-0.7,0.7-1.8,0.7-2.5,0l-3.4-3.4"/><g><path class="st1" d="M14.4,50.6l-1-1c-0.2-0.2-0.2-0.6,0-0.8h0c0.2-0.2,0.6-0.2,0.8,0l1,1c0.2,0.2,0.2,0.6,0,0.8l0,0    C15,50.8,14.6,50.8,14.4,50.6z"/><path class="st1" d="M12.3,52.8l-1-1c-0.2-0.2-0.2-0.6,0-0.8l0,0c0.2-0.2,0.6-0.2,0.8,0l1,1c0.2,0.2,0.2,0.6,0,0.8h0    C12.8,53,12.5,53,12.3,52.8z"/><path class="st1" d="M10.1,54.9l-1-1c-0.2-0.2-0.2-0.6,0-0.8h0c0.2-0.2,0.6-0.2,0.8,0l1,1c0.2,0.2,0.2,0.6,0,0.8l0,0    C10.7,55.2,10.3,55.2,10.1,54.9z"/><path class="st1" d="M7.9,57.1l-1-1c-0.2-0.2-0.2-0.6,0-0.8l0,0c0.2-0.2,0.6-0.2,0.8,0l1,1c0.2,0.2,0.2,0.6,0,0.8h0    C8.5,57.3,8.2,57.3,7.9,57.1z"/></g><circle class="st2" cx="34.2" cy="48.5" r="0.8"/><circle class="st2" cx="37.8" cy="49.2" r="0.5"/><circle class="st2" cx="16.1" cy="30.5" r="1.5"/><circle class="st2" cx="16.4" cy="34.6" r="0.3"/><circle class="st2" cx="11.3" cy="25.1" r="1.7"/><circle class="st2" cx="14.5" cy="21.2" r="0.8"/><circle class="st2" cx="17.4" cy="12.2" r="0.7"/><circle class="st2" cx="19.5" cy="7.3" r="0.9"/><circle class="st3" cx="6" cy="22.8" r="0.8"/><circle class="st3" cx="8.9" cy="28.1" r="0.2"/><circle class="st3" cx="14" cy="26.2" r="0.3"/><circle class="st3" cx="17.2" cy="17.5" r="0.4"/><circle class="st3" cx="30.3" cy="16.1" r="0.4"/><circle class="st3" cx="28.2" cy="19.5" r="0.5"/><circle class="st3" cx="42.6" cy="11.7" r="0.7"/><circle class="st3" cx="50.9" cy="20" r="0.4"/><circle class="st3" cx="52.7" cy="24.6" r="0.3"/><circle class="st3" cx="49.4" cy="32.2" r="0.2"/><circle class="st3" cx="56.2" cy="44.2" r="0.6"/><circle class="st3" cx="51.7" cy="45.7" r="0.4"/><circle class="st3" cx="54.7" cy="42.2" r="0.2"/><circle class="st3" cx="35.9" cy="53.1" r="1.6"/><circle class="st3" cx="27.3" cy="47.6" r="0.7"/><circle class="st3" cx="30.1" cy="46" r="0.7"/></g></svg>